<?xml version="1.0" encoding="UTF-8"?>
<svg version="1.1" xmlns="http://www.w3.org/2000/svg" width="4501" height="4501">
<path d="M0 0 C131.01 0 262.02 0 397 0 C409.43408079 30.52001648 409.43408079 30.52001648 413.98086548 42.49832153 C420.46570744 59.56889283 427.1259525 76.57014446 433.8125 93.5625 C434.51791428 95.35543991 434.51791428 95.35543991 435.23757935 97.18460083 C437.13013454 101.99474577 439.02278539 106.80485302 440.91578674 111.61482239 C445.37444236 122.94610958 449.81513285 134.28438485 454.25 145.625 C454.61388824 146.55539093 454.97777649 147.48578186 455.35269165 148.44436646 C457.17350799 153.09986565 458.99406806 157.75546497 460.81445312 162.41113281 C464.16497484 170.97971094 467.51810208 179.54726959 470.87097168 188.1149292 C472.74741536 192.90991332 474.62369982 197.70495973 476.5 202.5 C477.24999923 204.41666697 477.99999923 206.33333363 478.75 208.25 C480.25 212.08333333 481.75 215.91666667 483.25 219.75 C483.62126007 220.69877518 483.99252014 221.64755035 484.37503052 222.62507629 C485.12493033 224.54148805 485.8748286 226.4579004 486.62472534 228.37431335 C488.50124568 233.16988512 490.37779278 237.96544642 492.25439453 242.76098633 C495.61128354 251.33938452 498.96800349 259.91784861 502.32368469 268.49671936 C503.80251776 272.27736039 505.28147117 276.05795434 506.76046753 279.83853149 C507.50408939 281.7393781 508.24768065 283.64023668 508.99124146 285.54110718 C513.29097477 296.53259402 517.59591355 307.52201194 521.91015625 318.5078125 C530.54566956 340.49996182 539.14739875 362.50428544 547.67596436 384.53814697 C555.83142349 405.60447815 564.07711593 426.63495633 572.33447266 447.66151428 C576.60671912 458.54175875 580.8667924 469.42675502 585.125 480.3125 C585.86872847 482.21354372 586.61246219 484.11458539 587.35620117 486.015625 C589.93914499 492.61802108 592.52169675 499.2205705 595.10424805 505.82312012 C597.69425817 512.44467419 600.28447608 519.06614692 602.875 525.6875 C603.24320862 526.62864655 603.61141724 527.56979309 603.99078369 528.53945923 C609.9861334 543.86267059 615.99128386 559.1820257 622 574.5 C630.60588208 596.43890964 639.19742847 618.38339909 647.78222656 640.33056641 C651.14500056 648.92735036 654.50905033 657.5236351 657.87298584 666.1199646 C659.74870777 670.91328996 661.62434991 675.70664653 663.5 680.5 C664.24999962 682.41666682 664.99999962 684.33333348 665.75 686.25 C679.25 720.75 692.75 755.25 706.25 789.75 C706.80689011 791.17316277 706.80689011 791.17316277 707.37503052 792.62507629 C708.12493033 794.54148805 708.8748286 796.4579004 709.62472534 798.37431335 C711.50124568 803.16988512 713.37779278 807.96544642 715.25439453 812.76098633 C718.61127769 821.33936956 721.96798711 829.91782052 725.32366943 838.49667358 C733.95910511 860.57324281 742.60390501 882.64610673 751.26089478 904.7142334 C758.06713813 922.06479568 764.86347403 939.41921227 771.65039062 956.77734375 C775.68106334 967.08433792 779.72170404 977.38737834 783.76928711 987.68774414 C784.27960541 988.98655215 784.78991784 990.28536246 785.3002243 991.58417511 C786.53342551 994.72280595 787.76668524 997.86141378 789 1001 C830.16422306 1001.06886764 871.32843853 1001.12163059 912.49270783 1001.15319599 C917.36729034 1001.15694751 922.24187274 1001.16083053 927.11645508 1001.16479492 C928.08677911 1001.16558185 929.05710313 1001.16636878 930.05683092 1001.16717956 C945.70888416 1001.18018598 961.36090388 1001.20381315 977.01293733 1001.23145839 C993.1078419 1001.25964592 1009.20272908 1001.27620426 1025.29765731 1001.28226548 C1035.2060234 1001.28635445 1045.11429474 1001.29920474 1055.02263162 1001.3237494 C1061.84375855 1001.33977198 1068.66483746 1001.34436362 1075.48598178 1001.34050413 C1079.40447974 1001.33860786 1083.32281374 1001.34123184 1087.24128151 1001.35761642 C1111.73773466 1001.45491537 1136.14024044 1000.40830098 1160.1875 995.3125 C1161.4139624 995.05903809 1162.6404248 994.80557617 1163.90405273 994.54443359 C1176.52572493 991.83462259 1188.79744636 988.1926102 1201 984 C1201.91007812 983.68836914 1202.82015625 983.37673828 1203.7578125 983.05566406 C1244.30760348 968.92603557 1280.54034167 946.02799391 1312 917 C1312.97582031 916.12730469 1313.95164062 915.25460937 1314.95703125 914.35546875 C1321.39834166 908.58250025 1327.34670061 902.55441255 1333 896 C1333.92098878 894.96405519 1334.8429139 893.92894229 1335.765625 892.89453125 C1386.6443496 835.35231321 1416.49484726 755.01668045 1413 678 C1412.9383667 676.56479004 1412.9383667 676.56479004 1412.87548828 675.10058594 C1410.7345623 629.80597938 1400.0001064 586.68688071 1380 546 C1379.58637207 545.15356934 1379.17274414 544.30713867 1378.74658203 543.43505859 C1359.90006091 505.24825422 1330.95463615 467.9199161 1297 442 C1295.69206223 440.97608521 1294.3848261 439.95127379 1293.078125 438.92578125 C1234.34244814 393.09823127 1164.38410728 371.06639847 1090.28100586 370.79467773 C1088.58393636 370.78506608 1086.88686908 370.77505427 1085.18980408 370.76467896 C1080.64138353 370.7379791 1076.09295298 370.7167838 1071.54449916 370.69667697 C1066.76927736 370.67459821 1061.99408514 370.64731809 1057.21888733 370.62062073 C1048.2025645 370.57098636 1039.18622499 370.52594078 1030.16986996 370.48259836 C1019.89395637 370.43297363 1009.6180725 370.37815026 999.34218776 370.32291877 C978.22815294 370.20954869 957.11408966 370.10261423 936 370 C917.7253633 323.81731015 917.7253633 323.81731015 909.9375 303.875 C909.18951334 301.961565 908.44146444 300.04815433 907.69335938 298.13476562 C902.13378801 283.91281283 896.58375189 269.68713382 891.03442383 255.46118164 C886.07241851 242.74189856 881.1008697 230.0263652 876.125 217.3125 C875.75086975 216.35654938 875.3767395 215.40059875 874.99127197 214.41567993 C872.32778909 207.61034585 869.66393627 200.80515661 867 194 C863.95808017 186.22926574 860.91632257 178.45846804 857.875 170.6875 C857.50070862 169.73114655 857.12641724 168.77479309 856.74078369 167.78945923 C851.15792175 153.52376908 845.58497529 139.25423528 840.01794434 124.98236084 C834.72843995 111.42254997 829.42958993 97.86641633 824.125 84.3125 C823.75452545 83.3658548 823.3840509 82.41920959 823.00234985 81.44387817 C819.0967937 71.46454656 815.19023211 61.48560884 811.28289795 51.50697327 C809.64483162 47.32344578 808.00705745 43.13980394 806.36932373 38.95614624 C805.22128312 36.02378975 804.07280731 33.09160398 802.92431641 30.15942383 C801.24066662 25.86010215 799.56035857 21.55948805 797.88226318 17.25799561 C797.0515509 15.13193535 796.21679724 13.00750281 795.38134766 10.88330078 C794.69177979 9.11768799 794.69177979 9.11768799 793.98828125 7.31640625 C793.40300659 5.82475952 793.40300659 5.82475952 792.8059082 4.30297852 C792 2 792 2 792 0 C832.06821009 -0.04599774 872.13641667 -0.08113006 912.20464798 -0.10213066 C916.95861628 -0.10463142 921.71258452 -0.10722013 926.46655273 -0.10986328 C927.88591573 -0.11065021 927.88591573 -0.11065021 929.33395273 -0.11145304 C944.56079864 -0.12010385 959.78762911 -0.13584371 975.01446592 -0.15430559 C990.693585 -0.17315418 1006.37269612 -0.18414793 1022.05182606 -0.18817699 C1030.83535609 -0.19065075 1039.6188539 -0.19654625 1048.40237236 -0.21146011 C1121.29454808 -0.3314014 1191.87066717 2.78206054 1263 20 C1263.65381653 20.15770874 1264.30763306 20.31541748 1264.98126221 20.47790527 C1286.73549986 25.74768954 1307.88602932 32.62240833 1329 40 C1329.63869019 40.2225647 1330.27738037 40.44512939 1330.9354248 40.67443848 C1389.00324883 60.94862965 1447.04585132 90.30824823 1496.10107422 127.57226562 C1498.24001174 129.18045624 1500.40101637 130.75574088 1502.56640625 132.328125 C1512.985133 139.90337251 1523.1091557 147.74798442 1533 156 C1533.59039063 156.49129395 1534.18078125 156.98258789 1534.7890625 157.48876953 C1541.13476536 162.77981942 1547.38283205 168.16602995 1553.48828125 173.734375 C1555.56748211 175.60985944 1557.66745188 177.45302174 1559.78125 179.2890625 C1564.00379403 182.9772008 1568.10985303 186.7778411 1572.1875 190.625 C1573.28843994 191.66333984 1573.28843994 191.66333984 1574.41162109 192.72265625 C1591.63089448 209.02581194 1591.63089448 209.02581194 1599.00390625 217.72265625 C1601.28141362 220.32106485 1603.64342955 222.82807453 1606.01464844 225.34082031 C1611.50743528 231.16230935 1616.82087195 237.03251017 1621.81640625 243.29296875 C1623.75565733 245.69708503 1625.75089337 248.03990197 1627.77416992 250.37329102 C1635.68338348 259.53185441 1642.83738448 269.25374681 1650 279 C1650.87954346 280.19544434 1650.87954346 280.19544434 1651.77685547 281.41503906 C1659.12785931 291.43211274 1666.24571115 301.57096396 1673 312 C1673.44633789 312.68545898 1673.89267578 313.37091797 1674.35253906 314.07714844 C1722.03504668 387.53935787 1754.83513755 469.78220351 1784 676 C1784.01659668 676.89460938 1784.03319336 677.78921875 1784.05029297 678.7109375 C1784.14122481 684.47668987 1784.10713073 690.23470279 1784 696 C1783.98211426 697.01304199 1783.96422852 698.02608398 1783.94580078 699.06982422 C1782.2784008 781.35662191 1766.30682076 863.17623024 1711 994 C1710.12359863 995.74869385 1710.12359863 995.74869385 1709.22949219 997.53271484 C1693.81578896 1028.12606452 1676.00744031 1057.1967299 1656 1085 C1655.41718262 1085.81098145 1654.83436523 1086.62196289 1654.23388672 1087.45751953 C1646.62811642 1098.00231231 1638.72973753 1108.2460316 1630.43701172 1118.25878906 C1628.35496868 1120.7815772 1626.30593205 1123.3309177 1624.25 1125.875 C1620.65716766 1130.2640461 1616.91693674 1134.49480786 1613.09765625 1138.6875 C1611.30492554 1140.66384372 1609.55204773 1142.6645673 1607.8125 1144.6875 C1598.32945769 1155.51914652 1588.28919076 1165.8112512 1578.125 1176 C1577.63322266 1176.49436554 1577.14144531 1176.98873108 1576.63476562 1177.49807739 C1571.48564966 1182.66856924 1566.29597288 1187.74316548 1560.75195312 1192.49316406 C1558.16458944 1194.71852759 1555.68471046 1197.04892704 1553.1875 1199.375 C1548.61702095 1203.59274087 1543.9306113 1207.6095264 1539.08203125 1211.5078125 C1536.76835882 1213.37869084 1534.47813421 1215.26731879 1532.19921875 1217.1796875 C1521.77761994 1225.90322593 1511.03115131 1234.06461222 1500 1242 C1499.29939453 1242.50740723 1498.59878906 1243.01481445 1497.87695312 1243.53759766 C1478.62460452 1257.46297373 1458.61109928 1270.1875818 1438 1282 C1437.23945313 1282.43618652 1436.47890625 1282.87237305 1435.6953125 1283.32177734 C1430.50116789 1286.28507381 1425.26369587 1289.16232672 1420 1292 C1419.10571289 1292.48404297 1418.21142578 1292.96808594 1417.29003906 1293.46679688 C1346.54740559 1331.5645275 1268.32753117 1355.77237762 1157 1370 C1155.94619361 1370.09539181 1154.89238722 1370.19078361 1153.8066473 1370.28906608 C1127.10174734 1372.57425829 1100.33938576 1372.27683945 1073.55947175 1372.23522231 C1066.40829412 1372.22454054 1059.25712954 1372.22590667 1052.1059459 1372.22749493 C1038.91603509 1372.23010262 1025.72614455 1372.22351728 1012.53623962 1372.21146011 C999.50040079 1372.19957467 986.46457041 1372.19191792 973.4287262 1372.18975449 C972.61436761 1372.18961701 971.80000903 1372.18947953 970.96097291 1372.18933788 C966.82427314 1372.1886611 962.68757336 1372.18805837 958.55087358 1372.18748413 C929.34657276 1372.18329737 900.14228292 1372.1698622 870.93798828 1372.15087891 C842.58870502 1372.13247282 814.23942477 1372.1183239 785.89013672 1372.10986328 C785.01434662 1372.10960023 784.13855653 1372.10933718 783.23622734 1372.10906615 C774.44017264 1372.10642883 765.64411792 1372.10387724 756.84806317 1372.10138843 C738.93382418 1372.09631773 721.01958539 1372.09067522 703.10534668 1372.08468628 C701.87018713 1372.08427441 701.87018713 1372.08427441 700.61007487 1372.08385422 C645.74004531 1372.06549207 590.87002198 1372.03376442 536 1372 C535.19888408 1370.24922084 534.39903461 1368.49786214 533.59971619 1366.7462616 C533.1541635 1365.77103641 532.70861082 1364.79581121 532.24955654 1363.79103374 C530.70936651 1360.35083539 529.3395821 1356.88837591 528.00390625 1353.36328125 C527.60554062 1352.31830978 527.60554062 1352.31830978 527.1991272 1351.25222778 C526.62198991 1349.73823644 526.0462442 1348.22371402 525.47177124 1346.70870972 C523.8421604 1342.41418334 522.19868216 1338.12497438 520.5546875 1333.8359375 C520.19745102 1332.90379929 519.84021454 1331.97166107 519.47215271 1331.01127625 C514.78042138 1318.79273883 509.9809485 1306.61639914 505.1875 1294.4375 C504.23737129 1292.02271089 503.28725739 1289.60791596 502.3371582 1287.19311523 C500.9195897 1283.59034454 499.50197227 1279.98759317 498.0841217 1276.38493347 C493.6254854 1265.05373208 489.18483549 1253.7155342 484.75 1242.375 C484.38611176 1241.44460907 484.02222351 1240.51421814 483.64730835 1239.55563354 C481.82649201 1234.90013435 480.00593194 1230.24453503 478.18554688 1225.58886719 C474.83502516 1217.02028906 471.48189792 1208.45273041 468.12902832 1199.8850708 C466.25258464 1195.09008668 464.37630018 1190.29504027 462.5 1185.5 C461.75000077 1183.58333303 461.00000077 1181.66666637 460.25 1179.75 C423.125 1084.875 386 990 256.62503052 659.37507629 C255.87493033 657.45815471 255.1248286 655.54123373 254.37472534 653.62431335 C252.50124569 648.83655178 250.62779259 644.04877983 248.75439453 639.26098633 C245.36127916 630.58936877 241.9679628 621.91783012 238.57366943 613.24667358 C230.71178978 593.16245064 222.8558526 573.07595176 215.01794434 552.98236084 C207.45425435 533.59260363 199.86877982 514.21138702 192.28222656 494.83056641 C188.8950256 486.17734059 185.5090489 477.52363573 182.12298584 468.8699646 C180.24870794 464.07995655 178.3743499 459.28997987 176.5 454.5 C175.74999962 452.58333348 174.99999962 450.66666682 174.25 448.75 C173.87875 447.80125 173.5075 446.8525 173.125 445.875 C148 381.66666667 122.875 317.45833333 97.75 253.25 C97.37873993 252.30122482 97.00747986 251.35244965 96.62496948 250.37492371 C95.87506967 248.45851195 95.1251714 246.5420996 94.37527466 244.62568665 C92.49875432 239.83011488 90.62220722 235.03455358 88.74560547 230.23901367 C85.38872231 221.66063044 82.03201289 213.08217948 78.67633057 204.50332642 C70.46014725 183.49857965 62.23634446 162.4968502 54 141.5 C47.61850531 125.23170419 41.24211733 108.96142853 34.875 92.6875 C34.51061829 91.75625305 34.14623657 90.8250061 33.77081299 89.86553955 C29.97142195 80.15537588 26.17342723 70.44466853 22.37838745 60.73280334 C20.76538691 56.60528694 19.15179679 52.47800113 17.53814697 48.35073853 C16.78016071 46.41154342 16.02245633 44.47223811 15.26507568 42.5328064 C14.2060883 39.82106603 13.1460669 37.10973157 12.0859375 34.3984375 C11.75036835 33.53823502 11.41479919 32.67803253 11.06906128 31.79176331 C9.31273454 27.3017977 7.52740837 22.82588724 5.70019531 18.36425781 C5.32754547 17.44979889 4.95489563 16.53533997 4.57095337 15.59317017 C3.85933328 13.85109896 3.14200446 12.11134505 2.4180603 10.37435913 C2.10043732 9.59549347 1.78281433 8.81662781 1.45556641 8.01416016 C1.1737149 7.33326324 0.8918634 6.65236633 0.60147095 5.95083618 C0 4 0 4 0 0 Z " fill="#FFFFFF" transform="translate(1091,1323)"/>
<path d="M0 0 C65.55793626 -1.10196839 132.17111884 6.73850952 194.65380859 27.06640625 C195.83523438 27.45054688 197.01666016 27.8346875 198.23388672 28.23046875 C266.56043282 50.68010234 337.50262212 87.01423778 388.09130859 139.5 C389.83085836 141.24389865 391.65901942 142.83820811 393.52880859 144.44140625 C400.08654727 150.11124994 406.08960328 156.27711571 411.72412109 162.859375 C413.60637118 165.01215091 415.5465088 167.10231688 417.50146484 169.18896484 C423.45959623 175.57238068 428.9019697 182.25358327 434.20605469 189.18603516 C435.67976778 191.10012255 437.17440111 192.99624603 438.67333984 194.890625 C460.31264492 222.43676623 477.69685574 252.77635204 493.32543945 284.0390625 C494.73809441 286.85990905 496.1635523 289.67406188 497.58935547 292.48828125 C498.49833749 294.30039075 499.40656967 296.11287663 500.31396484 297.92578125 C500.73678238 298.75704529 501.15959991 299.58830933 501.5952301 300.44476318 C503.68908862 304.6656794 505.20523938 308.30400869 505.65380859 313.06640625 C474.30615234 330.62109375 474.30615234 330.62109375 471.22338867 332.34741211 C469.16199475 333.50181238 467.10063455 334.65627288 465.03930664 335.81079102 C459.80481815 338.74244779 454.56974287 341.67304721 449.33349609 344.6015625 C439.26176738 350.23574738 429.19719516 355.88182874 419.15380859 361.56640625 C405.95736685 369.03561949 392.72249138 376.43577025 379.48779297 383.83691406 C368.36409892 390.05835011 357.24568454 396.28838159 346.15380859 402.56640625 C332.95736685 410.03561949 319.72249138 417.43577025 306.48779297 424.83691406 C294.94915937 431.29042408 283.41594912 437.75322406 271.90380859 444.25390625 C270.94522949 444.79474854 269.98665039 445.33559082 268.99902344 445.89282227 C268.10650879 446.39740967 267.21399414 446.90199707 266.29443359 447.421875 C265.51616211 447.86168701 264.73789063 448.30149902 263.93603516 448.75463867 C262.26738774 449.71373608 260.62096463 450.7117918 258.98876953 451.73168945 C256.65380859 453.06640625 256.65380859 453.06640625 254.65380859 453.06640625 C253.04606198 449.44298433 251.44293095 445.81753921 249.84130859 442.19140625 C249.34501953 441.06895508 248.84873047 439.94650391 248.33740234 438.79003906 C245.3104543 431.91634454 242.37261534 425.01332354 239.50390625 418.07226562 C232.39585996 400.93069141 224.60179719 384.13083856 213.65380859 369.06640625 C212.59419922 367.58140625 212.59419922 367.58140625 211.51318359 366.06640625 C206.99528323 359.87403932 202.15342442 354.139761 196.93115234 348.53125 C195.05846457 346.50437867 193.27983013 344.44705305 191.52880859 342.31640625 C179.17212471 327.76147947 161.33656318 316.88760484 144.65380859 308.06640625 C143.89374512 307.66437988 143.13368164 307.26235352 142.35058594 306.84814453 C80.67887055 274.80316707 -2.184776 271.17488322 -68.10400391 291.02734375 C-90.82414314 298.24065039 -112.02745403 308.73387401 -130.34619141 324.06640625 C-131.22533203 324.78183594 -132.10447266 325.49726562 -133.01025391 326.234375 C-153.04573624 343.26143352 -163.51465094 367.34177559 -165.94799805 393.16040039 C-167.56753394 414.52285001 -161.94137288 434.37450013 -148.17822266 450.96484375 C-147.57365234 451.65835937 -146.96908203 452.351875 -146.34619141 453.06640625 C-145.33105469 454.26136719 -145.33105469 454.26136719 -144.29541016 455.48046875 C-128.86759699 473.18271974 -109.80679009 485.88228369 -89.34619141 497.06640625 C-88.50588379 497.53369141 -87.66557617 498.00097656 -86.79980469 498.48242188 C-40.96355367 523.86971024 10.63162427 540.37708276 61.52148438 552.11083984 C148.09832046 572.08120548 231.17465123 596.45412553 334.07666016 648.63964844 C336.74991148 650.11961061 339.44355048 651.55457436 342.14599609 652.98046875 C381.49885777 673.824277 420.5878868 703.33743173 447.65380859 739.06640625 C448.67464069 740.37211377 449.69689673 741.67670868 450.72021484 742.98046875 C486.77273125 789.16697943 508.45265657 843.36492946 516.90380859 901.25390625 C517.05487061 902.28346436 517.20593262 903.31302246 517.36157227 904.3737793 C520.01907197 923.85461607 521.0375604 943.35558751 520.96630859 963.00390625 C520.96448578 964.06057495 520.96266296 965.11724365 520.96078491 966.20593262 C520.7181831 1050.36584615 496.12155487 1133.78988542 441.65380859 1199.06640625 C440.82623047 1200.06671875 439.99865234 1201.06703125 439.14599609 1202.09765625 C425.85633552 1218.05726491 411.61347328 1233.73611161 395.65380859 1247.06640625 C394.33509766 1248.21882813 394.33509766 1248.21882813 392.98974609 1249.39453125 C322.1592294 1311.01338687 232.19327775 1347.69612777 84.65380859 1370.06640625 C83.46094238 1370.17082031 82.26807617 1370.27523437 81.0390625 1370.3828125 C40.27187211 1373.80307857 -1.60262417 1373.79997287 -42.34619141 1370.06640625 C-43.0692749 1370.00088562 -43.7923584 1369.93536499 -44.53735352 1369.86785889 C-76.8152914 1366.91484832 -108.71199932 1362.21430496 -140.34619141 1355.06640625 C-142.03760254 1354.68427979 -142.03760254 1354.68427979 -143.76318359 1354.29443359 C-201.43191271 1341.03677679 -256.70249156 1318.62186773 -307.34619141 1288.06640625 C-308.1225293 1287.5981543 -308.89886719 1287.12990234 -309.69873047 1286.64746094 C-330.24441048 1274.18227492 -350.30024793 1260.3296903 -368.45166016 1244.5625 C-371.13933396 1242.24478939 -373.88176645 1240.02560432 -376.65869141 1237.81640625 C-387.88329057 1228.64884041 -398.14949825 1218.34615177 -408.40869141 1208.12890625 C-409.19373047 1207.34854004 -409.97876953 1206.56817383 -410.78759766 1205.76416016 C-415.51210266 1201.02650906 -420.00255352 1196.15424096 -424.34619141 1191.06640625 C-425.22360283 1190.05712408 -426.10119232 1189.04799666 -426.97900391 1188.0390625 C-448.34420463 1163.0906698 -466.7197959 1135.94572996 -482.34619141 1107.06640625 C-483.01618164 1105.8429248 -483.01618164 1105.8429248 -483.69970703 1104.59472656 C-491.66238083 1090.0000829 -498.48191107 1075.06761929 -504.83642578 1059.70947266 C-506.13686929 1056.57150078 -507.45089879 1053.43991961 -508.77186584 1050.31057739 C-510.07690231 1047.21226388 -511.36717606 1044.10788081 -512.65869141 1041.00390625 C-513.14539307 1039.84987305 -513.63209473 1038.69583984 -514.13354492 1037.50683594 C-514.57110107 1036.44239258 -515.00865723 1035.37794922 -515.45947266 1034.28125 C-515.84917236 1033.344021 -516.23887207 1032.40679199 -516.64038086 1031.44116211 C-517.34619141 1029.06640625 -517.34619141 1029.06640625 -516.34619141 1026.06640625 C-514.31860352 1024.6628418 -514.31860352 1024.6628418 -511.62353516 1023.203125 C-510.62281982 1022.65350098 -509.62210449 1022.10387695 -508.59106445 1021.53759766 C-506.95391479 1020.65467041 -506.95391479 1020.65467041 -505.28369141 1019.75390625 C-502.9753464 1018.48623696 -500.66802649 1017.21684692 -498.36181641 1015.9453125 C-497.47800545 1015.45970856 -497.47800545 1015.45970856 -496.57633972 1014.96429443 C-490.83724082 1011.80458297 -485.18062959 1008.5121544 -479.53369141 1005.19140625 C-470.91780359 1000.1384101 -462.27197451 995.1407318 -453.59619141 990.19140625 C-452.71971451 989.69136078 -452.71971451 989.69136078 -451.82553101 989.18121338 C-448.8542716 987.48637135 -445.88255869 985.79232641 -442.91064453 984.09863281 C-437.63508094 981.09159762 -432.36348081 978.07762688 -427.09161377 975.06411743 C-424.1791851 973.39932689 -421.26661915 971.7347766 -418.35400391 970.0703125 C-417.77689667 969.74050888 -417.19978943 969.41070526 -416.60519409 969.07090759 C-413.08568761 967.05979172 -409.56552329 965.04983247 -406.04486084 963.04074097 C-394.13042996 956.24162667 -382.22430337 949.42887452 -370.34619141 942.56640625 C-357.88016918 935.36427831 -345.38257897 928.21810949 -332.87841797 921.08251953 C-329.36438462 919.07704811 -325.85123984 917.07002423 -322.33837891 915.0625 C-321.76064728 914.73233887 -321.18291565 914.40217773 -320.587677 914.06201172 C-318.84050003 913.06350299 -317.09334184 912.06496141 -315.34619141 911.06640625 C-308.79394346 907.32160492 -302.24159532 903.57698533 -295.68701172 899.83627319 C-293.17643248 898.40342192 -290.66608908 896.97015773 -288.15576172 895.53686523 C-286.41477855 894.54305792 -284.67346055 893.54983722 -282.93212891 892.55664062 C-281.31177734 891.63141602 -281.31177734 891.63141602 -279.65869141 890.6875 C-278.09634766 889.79780518 -278.09634766 889.79780518 -276.50244141 888.89013672 C-274.30241622 887.61892786 -272.11577972 886.32438476 -269.93994141 885.01220703 C-268.85712891 884.36106934 -267.77431641 883.70993164 -266.65869141 883.0390625 C-265.19882813 882.14779663 -265.19882813 882.14779663 -263.70947266 881.23852539 C-262.92958984 880.85172607 -262.14970703 880.46492676 -261.34619141 880.06640625 C-259.34619141 881.06640625 -259.34619141 881.06640625 -258.52758789 883.00601196 C-258.26018799 883.85819305 -257.99278809 884.71037415 -257.71728516 885.58837891 C-257.40936035 886.55514557 -257.10143555 887.52191223 -256.78417969 888.51797485 C-256.45401855 889.57809784 -256.12385742 890.63822083 -255.78369141 891.73046875 C-255.06125316 893.99225714 -254.33858874 896.25397331 -253.61572266 898.515625 C-252.49083957 902.06556814 -251.36967937 905.61661645 -250.25390625 909.16943359 C-239.22773567 944.17591026 -224.8030197 977.08521698 -199.34619141 1004.06640625 C-198.2799096 1005.33406816 -197.21733384 1006.60485766 -196.15869141 1007.87890625 C-148.43913354 1062.10567655 -72.75065122 1084.4604929 -3.12524414 1089.69287109 C0.46696775 1089.91157633 4.05581602 1090.00458019 7.65380859 1090.06640625 C8.66169434 1090.08687012 9.66958008 1090.10733398 10.70800781 1090.12841797 C72.41273498 1091.20720311 146.74319753 1084.85800551 194.65380859 1041.06640625 C214.41626052 1021.80464237 223.42535369 996.20284235 223.94604492 968.99731445 C224.12397927 943.26114716 215.63659284 922.6948919 197.65380859 904.06640625 C195.99500962 902.39190886 194.32823309 900.72527881 192.65380859 899.06640625 C191.90744141 898.32261719 191.16107422 897.57882812 190.39208984 896.8125 C144.81953537 853.44151821 75.23901576 837.20231701 15.93286133 822.09716797 C-4.27688078 816.94526142 -24.4098943 811.56018596 -44.49834061 805.95414352 C-46.83237481 805.30282093 -49.16664563 804.65235147 -51.50094604 804.00198364 C-98.01026113 791.03807768 -143.65484028 777.47565325 -188.34619141 759.06640625 C-188.98083313 758.80559265 -189.61547485 758.54477905 -190.26934814 758.27606201 C-235.57419908 739.65354237 -281.66319386 720.28242693 -321.34619141 691.06640625 C-321.90902832 690.65229492 -322.47186523 690.23818359 -323.05175781 689.81152344 C-334.06201983 681.64374884 -344.85810871 672.98145266 -354.34619141 663.06640625 C-356.85292562 660.54307114 -359.37472153 658.03865422 -361.92431641 655.55859375 C-368.21030119 649.40126947 -373.9641475 643.04141142 -379.34619141 636.06640625 C-380.15830078 635.02033203 -380.15830078 635.02033203 -380.98681641 633.953125 C-400.31790793 608.94877835 -416.08855818 582.22834943 -430.34619141 554.06640625 C-430.72904297 553.31681641 -431.11189453 552.56722656 -431.50634766 551.79492188 C-451.52823785 512.30525284 -462.37571308 465.5519035 -462.54931641 421.32421875 C-462.55983788 419.53340881 -462.55983788 419.53340881 -462.5705719 417.7064209 C-462.58800858 413.86804404 -462.59442537 410.02982127 -462.59619141 406.19140625 C-462.59686615 404.88306824 -462.59754089 403.57473022 -462.59823608 402.22674561 C-462.58296789 383.6392211 -462.29615762 365.45117133 -459.34619141 347.06640625 C-459.17458496 345.93396484 -459.00297852 344.80152344 -458.82617188 343.63476562 C-449.55379297 283.34358696 -426.33131514 225.08783154 -388.34619141 177.06640625 C-387.65396484 176.174375 -386.96173828 175.28234375 -386.24853516 174.36328125 C-372.17749152 156.44942693 -356.73918692 138.69822559 -339.42041016 123.86328125 C-337.14461423 121.89178195 -334.93696474 119.8550623 -332.72119141 117.81640625 C-269.48422486 60.92235732 -186.63679459 25.67331966 0 0 Z " fill="#FFFFFF" transform="translate(3489.34619140625,1322.93359375)"/>
<path d="M0 0 C479.16 0 958.32 0 1452 0 C1452 117.48 1452 234.96 1452 356 C1018.38 356 584.76 356 138 356 C126.06283834 325.56023776 114.12855938 295.11950247 102.21777344 264.66943359 C98.85499944 256.07264964 95.49094967 247.4763649 92.12701416 238.8800354 C90.25129223 234.08671004 88.37565009 229.29335347 86.5 224.5 C85.75000038 222.58333318 85.00000038 220.66666652 84.25 218.75 C43.75 115.25 43.75 115.25 42.62512207 112.37530518 C41.87472131 110.45761886 41.1243144 108.53993494 40.37390137 106.62225342 C38.50498284 101.84620709 36.63616922 97.07011976 34.76757812 92.29394531 C30.92034501 82.46065622 27.07112248 72.62815187 23.21875 62.796875 C19.45731449 53.19719882 15.70104461 43.59551665 11.95019531 33.99169922 C10.71684983 30.83381176 9.4819546 27.67654088 8.24511719 24.52001953 C6.78249627 20.78646419 5.32787993 17.04985658 3.875 13.3125 C3.46701172 12.27383789 3.05902344 11.23517578 2.63867188 10.16503906 C2.28095703 9.24045898 1.92324219 8.31587891 1.5546875 7.36328125 C1.25030762 6.58251221 0.94592773 5.80174316 0.63232422 4.99731445 C0 3 0 3 0 0 Z " fill="#EB5E28" transform="translate(2558,2821)"/>
<path d="M0 0 C0.93147858 0.00359528 1.86295715 0.00719055 2.82266235 0.01089478 C3.79816544 0.01074875 4.77366852 0.01060272 5.7787323 0.01045227 C9.01987899 0.01115184 12.260969 0.01894626 15.50210571 0.02676392 C17.74270089 0.02862794 19.98329648 0.03005192 22.22389221 0.03105164 C28.13404456 0.03487804 34.04417251 0.04470936 39.95431519 0.05575562 C45.98000763 0.06596711 52.005704 0.07054869 58.03140259 0.07559204 C69.86409563 0.08633152 81.69677052 0.10340941 93.52944946 0.12442017 C91.97393569 5.44390519 90.41384177 10.71786211 88.37564087 15.87661743 C87.97737091 16.89051041 87.57910095 17.90440338 87.16876221 18.94902039 C86.53132584 20.55371437 86.53132584 20.55371437 85.88101196 22.19082642 C85.20115738 23.91667213 85.20115738 23.91667213 84.50756836 25.67738342 C83.06032656 29.34874107 81.607525 33.01786808 80.15444946 36.68692017 C79.21787696 39.05981923 78.28167644 41.43286515 77.34585571 43.80606079 C74.40999345 51.24667456 71.46965035 58.68551976 68.52944946 66.12442017 C64.23944946 77.01442017 59.94944946 87.90442017 55.52944946 99.12442017 C103.54444946 98.62942017 103.54444946 98.62942017 152.52944946 98.12442017 C157.47944946 85.53285767 157.47944946 85.53285767 162.52944946 72.68692017 C163.60992554 69.93863892 164.69040161 67.19035767 165.80361938 64.35879517 C170.39198587 52.68308452 174.97296741 41.00469409 179.51773071 29.31192017 C179.89227386 28.34890488 180.26681702 27.38588959 180.65270996 26.39369202 C182.39437503 21.91471994 184.13314251 17.43465793 185.86734009 12.95278931 C186.47987402 11.37584761 187.09249833 9.79894102 187.70523071 8.22207642 C187.98022903 7.50813721 188.25522736 6.794198 188.53855896 6.05862427 C190.41596908 1.23790055 190.41596908 1.23790055 191.52944946 0.12442017 C194.63452197 0.02908363 197.71731404 -0.0010911 200.82266235 0.01089478 C201.79816544 0.01074875 202.77366852 0.01060272 203.7787323 0.01045227 C207.01987899 0.01115184 210.260969 0.01894626 213.50210571 0.02676392 C215.74270089 0.02862794 217.98329648 0.03005192 220.22389221 0.03105164 C226.13404456 0.03487804 232.04417251 0.04470936 237.95431519 0.05575562 C243.98000763 0.06596711 250.005704 0.07054869 256.03140259 0.07559204 C267.86409563 0.08633152 279.69677052 0.10340941 291.52944946 0.12442017 C288.44291565 10.64308443 288.44291565 10.64308443 286.5909729 15.33828735 C286.23869125 16.2372171 285.88640961 17.13614685 285.52345276 18.06231689 C285.14902542 19.00577972 284.77459808 19.94924255 284.38882446 20.92129517 C283.98930069 21.93750946 283.58977692 22.95372375 283.17814636 24.00073242 C281.88248989 27.29351733 280.58112134 30.58400911 279.27944946 33.87442017 C278.38223803 36.15017288 277.4853495 38.42605292 276.58877563 40.70205688 C274.77798211 45.29713238 272.96487375 49.89128462 271.15005493 54.48477173 C268.72735195 60.61902678 266.31634317 66.75781454 263.90835571 72.89785767 C262.87790531 75.52189751 261.84706536 78.14578375 260.81594849 80.76956177 C260.16800618 82.41926072 259.52078614 84.06924354 258.8742981 85.71951294 C257.98709989 87.98307541 257.09663185 90.2453227 256.20523071 92.50723267 C255.94577164 93.17137177 255.68631256 93.83551086 255.41899109 94.51977539 C253.64369498 99.01017465 253.64369498 99.01017465 252.52944946 100.12442017 C249.45490185 100.21974344 246.40285789 100.24993396 243.32803345 100.23794556 C241.87940918 100.2381646 241.87940918 100.2381646 240.40151978 100.23838806 C237.19283848 100.23768851 233.98421443 100.22989413 230.77554321 100.22207642 C228.55736828 100.22021239 226.33919294 100.21878841 224.12101746 100.2177887 C218.27004875 100.21396232 212.41910469 100.20413102 206.56814575 100.19308472 C200.60277642 100.18287316 194.63740313 100.17829163 188.67202759 100.17324829 C176.95782402 100.16250886 165.24363879 100.14543101 153.52944946 100.12442017 C153.33005138 100.72771558 153.13065331 101.33101099 152.92521286 101.95258808 C152.66012547 102.75181785 152.39503807 103.55104761 152.12191772 104.37449646 C151.73000811 105.55787708 151.73000811 105.55787708 151.33018112 106.76516438 C150.13777718 110.27843362 148.81933698 113.73824513 147.48257446 117.19863892 C147.19443878 117.94887329 146.9063031 118.69910767 146.60943604 119.47207642 C145.66842857 121.91959205 144.72416291 124.36583283 143.77944946 126.81192017 C143.45430359 127.65558136 143.12915771 128.49924255 142.79415894 129.36846924 C137.71825987 142.53753011 132.58354869 155.6831224 127.40444946 168.81192017 C127.09334229 169.60125946 126.78223511 170.39059875 126.46170044 171.20385742 C125.56650543 173.47354456 124.66945908 175.74248985 123.77163696 178.01113892 C123.51693634 178.65663696 123.26223572 179.30213501 122.99981689 179.9671936 C120.58534751 186.05386748 118.04933137 192.07670358 115.52944946 198.12442017 C148.19944946 198.12442017 180.86944946 198.12442017 214.52944946 198.12442017 C204.17810104 225.72801595 204.17810104 225.72801595 200.11929321 236.01504517 C199.66268814 237.17663147 199.20608307 238.33821777 198.73564148 239.53500366 C197.78815394 241.94438789 196.83979152 244.35342826 195.89053345 246.76211548 C194.46288821 250.38472549 193.03792648 254.00838197 191.61343384 257.63223267 C190.67804133 260.00989757 189.74249955 262.38750375 188.80679321 264.76504517 C188.39509384 265.81146179 187.98339447 266.85787842 187.55921936 267.93600464 C183.58667844 278.01414273 179.55284541 288.06593031 175.52944946 298.12442017 C142.52944946 298.12442017 109.52944946 298.12442017 75.52944946 298.12442017 C75.19944946 299.77442017 74.86944946 301.42442017 74.52944946 303.12442017 C73.61676476 305.70751357 72.67191684 308.25677541 71.67788696 310.80801392 C71.38696671 311.56377213 71.09604645 312.31953033 70.79631042 313.09819031 C69.83650983 315.58772689 68.87065996 318.07486501 67.90444946 320.56192017 C67.23181943 322.30143183 66.5593775 324.04101624 65.88711548 325.78067017 C59.9508257 341.12044924 53.92722346 356.42607075 47.86929321 371.71817017 C47.6197438 372.3482045 47.3701944 372.97823883 47.11308289 373.62736511 C44.26789305 380.79949959 41.39508114 387.96034096 38.52944946 395.12442017 C87.03944946 395.61942017 87.03944946 395.61942017 136.52944946 396.12442017 C133.15478399 407.37330509 133.15478399 407.37330509 131.69863892 411.01528931 C131.36956039 411.84460968 131.04048187 412.67393005 130.70143127 413.52838135 C130.1773745 414.83082291 130.1773745 414.83082291 129.64273071 416.15957642 C129.26818253 417.10086395 128.89363434 418.04215149 128.50773621 419.01196289 C127.28951715 422.07177558 126.06572629 425.12932663 124.84194946 428.18692017 C123.13028609 432.4803845 121.42157391 436.77502091 119.71304321 441.06973267 C119.28138855 442.15372849 118.84973389 443.2377243 118.40499878 444.35456848 C115.49092367 451.68045088 112.60878 459.01816138 109.75210571 466.36660767 C109.38041763 467.3225029 109.00872955 468.27839813 108.6257782 469.26325989 C107.20110867 472.92977168 105.77768141 476.59675078 104.35894775 480.26556396 C103.39442853 482.75969448 102.42697523 485.25266993 101.45913696 487.74551392 C101.17462173 488.48482147 100.89010651 489.22412903 100.5969696 489.98583984 C98.64267236 495.01119727 98.64267236 495.01119727 97.52944946 496.12442017 C94.4556255 496.2498071 91.40319937 496.31054878 88.32803345 496.32974243 C87.36228394 496.33964203 86.39653442 496.34954163 85.40151978 496.35974121 C82.1928863 496.39145917 78.98423798 496.41615416 75.77554321 496.44082642 C73.55736393 496.46138706 71.33918864 496.48238329 69.12101746 496.50379944 C63.27009306 496.55911199 57.41913277 496.60848063 51.56814575 496.65664673 C45.60274037 496.70679488 39.63738739 496.76251576 33.67202759 496.81777954 C21.9578796 496.92547337 10.2436862 497.02689324 -1.47055054 497.12442017 C-1.70256353 497.72405736 -1.93457653 498.32369455 -2.17362022 498.94150257 C-20.23043409 545.60796454 -20.23043409 545.60796454 -28.90805054 567.56192017 C-29.21606598 568.34125916 -29.52408142 569.12059814 -29.84143066 569.92355347 C-31.23978643 573.46013079 -32.64006178 576.99592845 -34.04428101 580.53018188 C-34.94331814 582.79578009 -35.83868979 585.06283955 -36.72885132 587.3319397 C-37.08833862 588.24443481 -37.44782593 589.15692993 -37.81820679 590.09707642 C-38.26885498 591.24768555 -38.26885498 591.24768555 -38.72860718 592.42153931 C-39.47055054 594.12442017 -39.47055054 594.12442017 -40.47055054 595.12442017 C-43.57562304 595.2197567 -46.65841511 595.24993143 -49.76376343 595.23794556 C-50.73926651 595.23809158 -51.71476959 595.23823761 -52.71983337 595.23838806 C-55.96098006 595.2376885 -59.20207007 595.22989407 -62.44320679 595.22207642 C-64.68380197 595.22021239 -66.92439755 595.21878842 -69.16499329 595.2177887 C-75.07514563 595.21396229 -80.98527358 595.20413097 -86.89541626 595.19308472 C-92.9211087 595.18287322 -98.94680507 595.17829164 -104.97250366 595.17324829 C-116.8051967 595.16250881 -128.63787159 595.14543093 -140.47055054 595.12442017 C-137.36452721 584.54743977 -137.36452721 584.54743977 -135.63973999 580.23355103 C-135.31121536 579.4056456 -134.98269073 578.57774017 -134.64421082 577.7247467 C-134.29428574 576.85503738 -133.94436066 575.98532806 -133.58383179 575.08926392 C-133.01453194 573.65823082 -133.01453194 573.65823082 -132.43373108 572.19828796 C-131.22079526 569.1512363 -130.00227838 566.10645895 -128.78305054 563.06192017 C-119.89053242 540.79577811 -111.18749304 518.46158532 -102.47055054 496.12442017 C-150.48555054 496.61942017 -150.48555054 496.61942017 -199.47055054 497.12442017 C-210.38754614 525.09864717 -210.38754614 525.09864717 -221.30258179 553.07363892 C-223.83969116 559.56387329 -223.83969116 559.56387329 -225.05770874 562.67739868 C-225.8989375 564.82932856 -226.73904739 566.98169606 -227.57821655 569.13442993 C-228.83784993 572.36521101 -230.10107452 575.59456701 -231.36508179 578.82363892 C-231.92278008 580.25760262 -231.92278008 580.25760262 -232.491745 581.72053528 C-233.01456306 583.05293999 -233.01456306 583.05293999 -233.54794312 584.41226196 C-233.84831985 585.18128342 -234.14869659 585.95030487 -234.45817566 586.74263 C-235.66987048 589.59335544 -237.08528234 592.35388378 -238.47055054 595.12442017 C-271.47055054 595.12442017 -304.47055054 595.12442017 -338.47055054 595.12442017 C-336.53948101 588.68752174 -334.58679424 582.55386739 -332.09164429 576.35879517 C-331.60474876 575.13418076 -331.60474876 575.13418076 -331.10801697 573.88482666 C-330.04508232 571.21319179 -328.97655273 568.54383259 -327.90805054 565.87442017 C-326.38395292 562.04967927 -324.86279129 558.22377285 -323.34164429 554.39785767 C-322.9481076 553.4091568 -322.55457092 552.42045593 -322.14910889 551.40179443 C-319.19785826 543.97920452 -316.28136331 536.54347726 -313.38070679 529.10098267 C-312.76104286 527.5118103 -312.76104286 527.5118103 -312.12886047 525.89053345 C-310.50708501 521.72994823 -308.8859901 517.56910764 -307.26934814 513.40652466 C-306.15113461 510.52776605 -305.0298503 507.65022026 -303.90805054 504.77285767 C-303.573423 503.90826935 -303.23879547 503.04368103 -302.89402771 502.15289307 C-300.58403155 496.23790118 -300.58403155 496.23790118 -299.47055054 495.12442017 C-296.39672657 494.99903323 -293.34430044 494.93829155 -290.26913452 494.9190979 C-289.30338501 494.9091983 -288.3376355 494.89929871 -287.34262085 494.88909912 C-284.13398737 494.85738116 -280.92533906 494.83268617 -277.71664429 494.80801392 C-275.498465 494.78745327 -273.28028972 494.76645705 -271.06211853 494.74504089 C-265.21119413 494.68972834 -259.36023384 494.6403597 -253.50924683 494.5921936 C-247.54384144 494.54204545 -241.57848846 494.48632457 -235.61312866 494.43106079 C-223.89898067 494.32336697 -212.18478727 494.22194709 -200.47055054 494.12442017 C-200.05772324 493.04871262 -199.64489594 491.97300507 -199.21955872 490.86470032 C-184.24531086 451.85369648 -184.24531086 451.85369648 -177.53305054 434.93692017 C-176.68852374 432.80143003 -175.84442443 430.66577138 -175.00045776 428.53005981 C-170.8493267 418.05111552 -166.6566405 407.58964506 -162.47055054 397.12442017 C-194.81055054 397.12442017 -227.15055054 397.12442017 -260.47055054 397.12442017 C-259.57360279 392.63968145 -258.26719494 388.67103724 -256.61898804 384.44082642 C-256.18267563 383.30739304 -256.18267563 383.30739304 -255.73754883 382.15106201 C-254.77768125 379.66139659 -253.81177497 377.17412473 -252.84555054 374.68692017 C-252.17218029 372.94521424 -251.49900609 371.2034325 -250.82601929 369.46157837 C-245.24762585 355.04447006 -239.58639395 340.6598584 -233.88543701 326.29081726 C-230.03969151 316.58315273 -226.25548836 306.85711744 -222.47055054 297.12442017 C-189.47055054 297.12442017 -156.47055054 297.12442017 -122.47055054 297.12442017 C-121.48055054 293.82442017 -120.49055054 290.52442017 -119.47055054 287.12442017 C-118.84760618 285.36552826 -118.20209537 283.61412868 -117.51620483 281.8788147 C-116.98370369 280.52265549 -116.98370369 280.52265549 -116.44044495 279.13909912 C-116.06237198 278.18808319 -115.68429901 277.23706726 -115.29476929 276.25723267 C-114.68506035 274.70852982 -114.68506035 274.70852982 -114.06303406 273.12854004 C-112.76516928 269.83398754 -111.46186205 266.54162319 -110.15805054 263.24942017 C-101.86031251 242.23388074 -93.66000603 221.18302 -85.47055054 200.12442017 C-117.81055054 199.79442017 -150.15055054 199.46442017 -183.47055054 199.12442017 C-179.91871255 189.06087921 -176.3747609 179.07688024 -172.45883179 169.16348267 C-172.00509689 168.00859344 -171.551362 166.85370422 -171.08387756 165.66381836 C-170.13157483 163.24176599 -169.1778556 160.82027011 -168.2227478 158.39932251 C-166.7998963 154.79212734 -165.381917 151.18304751 -163.96469116 147.57363892 C-163.02552885 145.18680572 -162.08608416 142.80008361 -161.14633179 140.41348267 C-160.53789177 138.86511215 -160.53789177 138.86511215 -159.91716003 137.28546143 C-154.87623107 124.51997215 -149.64977117 111.83705263 -144.47055054 99.12442017 C-95.46555054 98.62942017 -95.46555054 98.62942017 -45.47055054 98.12442017 C-42.54180054 90.65817017 -39.61305054 83.19192017 -36.59555054 75.49942017 C-35.62464478 73.0250647 -34.65373901 70.55070923 -33.65341187 68.00137329 C-29.14730469 56.51562559 -24.64944387 45.02675493 -20.16976929 33.53067017 C-18.93637214 30.36813405 -17.70282749 27.20565549 -16.4692688 24.04318237 C-15.67815691 22.01323852 -14.88799632 19.98292367 -14.0987854 17.95223999 C-13.00234171 15.13113037 -11.90278814 12.31125155 -10.80258179 9.49160767 C-10.47747116 8.6523877 -10.15236053 7.81316772 -9.81739807 6.94851685 C-7.10463657 0.01158828 -7.10463657 0.01158828 0 0 Z M-44.47055054 100.12442017 C-50.90100487 115.90826262 -57.31288592 131.67416492 -63.47055054 147.56192017 C-64.83431945 151.07265359 -66.19930184 154.58291474 -67.56430054 158.09317017 C-67.89587158 158.94648422 -68.22744263 159.79979828 -68.56906128 160.67897034 C-70.67513493 166.09480683 -72.79909362 171.5032372 -74.93930054 176.90567017 C-75.20218872 177.57018692 -75.4650769 178.23470367 -75.7359314 178.9193573 C-76.94436626 181.97357294 -78.15587652 185.02649342 -79.37289429 188.07730103 C-79.78668335 189.12281128 -80.20047241 190.16832153 -80.62680054 191.24551392 C-80.98580444 192.14713257 -81.34480835 193.04875122 -81.71469116 193.97769165 C-82.58125488 196.05951502 -82.58125488 196.05951502 -82.47055054 198.12442017 C-50.13055054 198.12442017 -17.79055054 198.12442017 15.52944946 198.12442017 C18.27257446 191.02942017 21.01569946 183.93442017 23.84194946 176.62442017 C31.70602193 156.30878428 39.67629668 136.03715188 47.73574829 115.79824829 C48.12590118 114.81682861 48.51605408 113.83540894 48.91802979 112.82424927 C49.64981446 110.98372224 50.38303989 109.14376719 51.11791992 107.30447388 C51.43765778 106.49997803 51.75739563 105.69548218 52.08682251 104.86660767 C52.50716011 103.81255737 52.50716011 103.81255737 52.93598938 102.73721313 C53.58700496 101.25442607 53.58700496 101.25442607 53.52944946 100.12442017 C21.18944946 100.12442017 -11.15055054 100.12442017 -44.47055054 100.12442017 Z M15.52944946 199.12442017 C0.33810677 237.75339717 0.33810677 237.75339717 -14.80502319 276.40130615 C-15.49844766 278.17438291 -16.19245771 279.94723077 -16.88705444 281.71984863 C-17.84101243 284.15484717 -18.79282862 286.59067111 -19.74398804 289.02676392 C-20.02414764 289.74070312 -20.30430725 290.45464233 -20.59295654 291.19021606 C-21.9066669 294.07460314 -21.9066669 294.07460314 -22.47055054 297.12442017 C9.86944946 297.12442017 42.20944946 297.12442017 75.52944946 297.12442017 C88.46813501 264.43665595 88.46813501 264.43665595 101.33755493 231.72158813 C102.07283646 229.84552657 102.80923101 227.96990097 103.54653931 226.09463501 C104.66546541 223.24866047 105.78140425 220.4015312 106.89663696 217.55410767 C107.38400833 216.31683426 107.38400833 216.31683426 107.88122559 215.05456543 C108.33913986 213.88233932 108.33913986 213.88233932 108.80630493 212.68643188 C109.19905106 211.68517776 109.19905106 211.68517776 109.59973145 210.66369629 C110.99677161 206.84805471 112.24450425 202.97925579 113.52944946 199.12442017 C81.18944946 199.12442017 48.84944946 199.12442017 15.52944946 199.12442017 Z M-122.47055054 298.12442017 C-125.29617554 305.42567017 -128.12180054 312.72692017 -131.03305054 320.24942017 C-137.87044281 337.90292598 -144.75426659 355.53667649 -151.74813843 373.1288147 C-152.03923492 373.86259338 -152.33033142 374.59637207 -152.63024902 375.35238647 C-153.39921599 377.29041778 -154.17002442 379.22771817 -154.94100952 381.16494751 C-156.85670034 386.12403349 -158.65376248 391.12825301 -160.47055054 396.12442017 C-128.13055054 396.12442017 -95.79055054 396.12442017 -62.47055054 396.12442017 C-55.43478745 378.85481985 -48.48003031 361.58575955 -41.78305054 344.18692017 C-40.19739602 340.07302581 -38.60991394 335.95984108 -37.02133179 331.84707642 C-36.64187408 330.86316925 -36.26241638 329.87926208 -35.87145996 328.86553955 C-32.9365505 321.27530537 -29.92389043 313.71782502 -26.84098816 306.18644714 C-25.10785308 302.28244311 -25.10785308 302.28244311 -24.47055054 298.12442017 C-56.81055054 298.12442017 -89.15055054 298.12442017 -122.47055054 298.12442017 Z M-61.47055054 397.12442017 C-64.68230829 403.47015925 -64.68230829 403.47015925 -67.43075562 409.92764282 C-67.76294098 410.78670227 -68.09512634 411.64576172 -68.43737793 412.53085327 C-68.7847702 413.44087097 -69.13216248 414.35088867 -69.49008179 415.28848267 C-69.86599457 416.26295349 -70.24190735 417.23742432 -70.62921143 418.24142456 C-71.85069148 421.40940834 -73.06690884 424.5793837 -74.28305054 427.74942017 C-75.98144517 432.1616994 -77.68265295 436.57289017 -79.38461304 440.98379517 C-79.81072372 442.08895477 -80.23683441 443.19411438 -80.67585754 444.33276367 C-83.43239504 451.47096567 -86.22627943 458.59324704 -89.05648804 465.70254517 C-89.40888046 466.588685 -89.76127289 467.47482483 -90.12434387 468.38781738 C-91.77644232 472.53922184 -93.43472977 476.68802784 -95.10067749 480.83389282 C-95.68638606 482.30306016 -96.27192711 483.77229431 -96.85726929 485.24160767 C-97.12506195 485.90178894 -97.39285461 486.56197021 -97.66876221 487.24215698 C-98.78102231 490.04596278 -99.47055054 492.0745813 -99.47055054 495.12442017 C-67.46055054 495.12442017 -35.45055054 495.12442017 -2.47055054 495.12442017 C0.44891504 488.70159591 3.29367954 482.42880973 5.77163696 475.85488892 C6.1997316 474.73364624 6.1997316 474.73364624 6.63647461 473.5897522 C7.24630998 471.99201927 7.85469101 470.39373057 8.46170044 468.79492188 C10.094047 464.49566599 11.73686809 460.20042605 13.38101196 455.90567017 C13.71943115 455.0213884 14.05785034 454.13710663 14.40652466 453.22602844 C16.81143057 446.95743862 19.26167836 440.70791878 21.74038696 434.46817017 C22.08113251 433.60984085 22.42187805 432.75151154 22.77294922 431.86717224 C24.40698051 427.75477939 26.046745 423.64476612 27.69302368 419.53726196 C28.28965544 418.03901667 28.88617802 416.54072789 29.48257446 415.04238892 C29.88009415 414.0586731 29.88009415 414.0586731 30.28564453 413.05508423 C32.37800101 407.78246287 33.8802035 402.62190673 35.52944946 397.12442017 C3.51944946 397.12442017 -28.49055054 397.12442017 -61.47055054 397.12442017 Z " fill="#EB5E28" transform="translate(829.4705505371094,2099.8755798339844)"/>
<path d="M0 0 C129.99074655 0 129.99074655 0 144.4375 7.8125 C145.10015869 8.15869385 145.76281738 8.5048877 146.44555664 8.86157227 C151.76431833 11.71358628 156.52429903 14.9343535 161 19 C161.73347656 19.64195312 162.46695313 20.28390625 163.22265625 20.9453125 C175.21501336 32.09429629 184.20201312 47.88263212 185.13916016 64.46191406 C185.92643063 86.79247256 183.10334047 103.98255377 168.32421875 121.546875 C165.59864768 124.42361219 162.73914667 126.70742217 159.43359375 128.87890625 C158.72396484 129.43384766 158.72396484 129.43384766 158 130 C158 130.66 158 131.32 158 132 C159.91840514 133.27988719 159.91840514 133.27988719 162.375 134.5625 C168.30753527 138.01125812 173.11562534 142.20653587 178 147 C178.62777344 147.60328125 179.25554688 148.2065625 179.90234375 148.828125 C183.81271495 152.90697024 186.56393706 157.44254604 189.25 162.375 C189.5795166 162.97521973 189.9090332 163.57543945 190.24853516 164.19384766 C195.4301246 174.12500656 196.47875131 183.2390257 196.375 194.375 C196.38660156 195.6125 196.39820312 196.85 196.41015625 198.125 C196.34520057 218.69429829 188.59506902 235.62492901 174.375 250.25 C167.90053163 256.67478545 161.22272514 261.06074098 153 265 C152.01515625 265.48984375 151.0303125 265.9796875 150.015625 266.484375 C109.23912043 285.21952575 15.0395498 273 0 273 C0 182.91 0 92.82 0 0 Z " fill="#FEFDFC" transform="translate(3411,2863)"/>
<path d="M0 0 C13.86 0 27.72 0 42 0 C44.17082079 5.66940015 46.34023031 11.33930412 48.50634766 17.01049805 C49.24059716 18.93169344 49.97559858 20.85260168 50.71142578 22.77319336 C54.50611203 32.67923992 58.24797965 42.59147479 61.73477173 52.6103363 C64.9564738 61.81456864 68.50007919 70.89889261 72 80 C76.02944765 90.47807587 80.02547084 100.95380845 83.71582031 111.55664062 C86.94400388 120.77878752 90.49324014 129.8811085 94 139 C98.06368986 149.56711848 102.09249056 160.13290155 105.81799316 170.8245697 C108.54896746 178.63289309 111.52274237 186.34548356 114.5 194.0625 C121.14210494 211.32211809 127.62425743 228.62939252 133.90087891 246.02539062 C134.66422265 248.1398576 135.42924043 250.25370756 136.1953125 252.3671875 C136.43727356 253.0357074 136.67923462 253.70422729 136.92852783 254.39300537 C138.61028801 259.00989265 140.40760311 263.56541065 142.33154297 268.08642578 C143 270 143 270 143 273 C130.13 273 117.26 273 104 273 C102.98679687 270.15375 101.97359375 267.3075 100.9296875 264.375 C99.92707418 261.56141053 98.92400685 258.7479833 97.92089844 255.93457031 C97.23390237 254.00700432 96.54736455 252.07927493 95.86132812 250.15136719 C94.86454316 247.35045972 93.86627929 244.5500854 92.8671875 241.75 C92.54095398 240.83484619 92.21472046 239.91969238 91.87860107 238.97680664 C90.34461533 234.69034595 88.78974753 230.41462474 87.16894531 226.16015625 C86.88745636 225.42120117 86.60596741 224.68224609 86.31594849 223.92089844 C85.79295522 222.55642735 85.26547403 221.19366442 84.7326355 219.83300781 C83.66210308 217.04762674 83 215.01694998 83 212 C22.115 212.495 22.115 212.495 -40 213 C-45.28 227.52 -50.56 242.04 -56 257 C-57.98 262.28 -59.96 267.56 -62 273 C-74.87 273 -87.74 273 -101 273 C-97.62990152 261.76633841 -97.62990152 261.76633841 -95.546875 256.3828125 C-95.09634766 255.20976562 -94.64582031 254.03671875 -94.18164062 252.828125 C-93.70919922 251.60609375 -93.23675781 250.3840625 -92.75 249.125 C-89.55001896 240.78928583 -86.39265178 232.44855048 -83.5 224 C-77.86265763 207.58599577 -71.52518912 191.40397305 -65.1875 175.25 C-63.12601703 169.99200021 -61.16480668 164.71085743 -59.3125 159.375 C-56.07024075 150.04588917 -52.57773807 140.8116876 -49.09814453 131.56933594 C-46.01795674 123.386005 -42.95332365 115.19718045 -39.91015625 107 C-39.56031677 106.05796722 -39.21047729 105.11593445 -38.85003662 104.14535522 C-37.45941052 100.40011632 -36.06897826 96.6548085 -34.68121338 92.9085083 C-31.26017523 83.67393021 -27.8091364 74.45541371 -24.21875 65.28515625 C-21.95377395 59.49993446 -19.7856165 53.70470609 -17.8125 47.8125 C-14.20626975 37.27054373 -10.14730953 26.9076201 -6.0871582 16.53442383 C-5.70516769 15.55683357 -5.70516769 15.55683357 -5.31546021 14.55949402 C-4.61780105 12.77550697 -3.91774477 10.9924579 -3.2175293 9.20947266 C-2.06415188 6.1691078 -1.02830433 3.08491299 0 0 Z " fill="#FEFDFC" transform="translate(3173,2863)"/>
<path d="M0 0 C0.94230469 0.80179688 1.88460937 1.60359375 2.85546875 2.4296875 C4.19158203 3.53957031 4.19158203 3.53957031 5.5546875 4.671875 C15.48504504 13.21836955 22.83262179 23.46486104 29.85546875 34.4296875 C27.11503804 37.36549675 24.47802807 39.41917801 20.9765625 41.375 C20.05552734 41.89449219 19.13449219 42.41398437 18.18554688 42.94921875 C17.23099609 43.47902344 16.27644531 44.00882813 15.29296875 44.5546875 C13.39537438 45.61897378 11.49821953 46.68404419 9.6015625 47.75 C8.76294678 48.21680176 7.92433105 48.68360352 7.06030273 49.16455078 C5.28389623 50.18385523 3.55956821 51.29362119 1.85546875 52.4296875 C-0.09375 52.40234375 -0.09375 52.40234375 -2.14453125 51.4296875 C-4.0390625 48.98828125 -4.0390625 48.98828125 -5.95703125 45.8671875 C-18.04844124 27.11000021 -36.52237337 14.77710289 -58.14453125 9.4296875 C-59.23378906 9.13191406 -60.32304687 8.83414063 -61.4453125 8.52734375 C-82.94924772 3.3367387 -106.89167763 5.52218244 -127.14453125 14.4296875 C-128.583125 15.05810547 -128.583125 15.05810547 -130.05078125 15.69921875 C-137.8461989 19.34578654 -144.43126463 24.08115072 -151.14453125 29.4296875 C-152.19640625 30.2134375 -153.24828125 30.9971875 -154.33203125 31.8046875 C-172.9684067 49.19863792 -183.95749063 73.78729985 -185.28515625 99.11206055 C-186.21183604 126.96110495 -180.53163918 152.61641039 -162.14453125 174.4296875 C-161.51160156 175.21988281 -160.87867187 176.01007812 -160.2265625 176.82421875 C-145.32289069 194.58000036 -122.71212971 205.61709395 -99.76953125 208.2421875 C-97.89588822 208.33701913 -96.02023283 208.39398252 -94.14453125 208.4296875 C-93.44134766 208.45401855 -92.73816406 208.47834961 -92.01367188 208.50341797 C-65.61650525 209.37359484 -39.91492131 203.52781639 -19.56640625 185.73828125 C-12.16134708 178.67958775 -6.35109708 171.23564771 -1.14453125 162.4296875 C5.11254963 164.78218925 10.78644101 168.16998467 16.60546875 171.4296875 C17.77856301 172.07827483 18.95173932 172.72671378 20.125 173.375 C21.22714844 173.99117187 22.32929688 174.60734375 23.46484375 175.2421875 C24.47514648 175.80550781 25.48544922 176.36882813 26.52636719 176.94921875 C28.85546875 178.4296875 28.85546875 178.4296875 29.85546875 180.4296875 C15.83110555 208.23323272 -12.13975673 228.13904979 -41.09765625 237.78466797 C-76.69604975 249.00257775 -118.00210762 245.7761254 -151.14453125 228.6171875 C-159.14889135 224.30272825 -166.23131483 219.33549671 -173.14453125 213.4296875 C-174.10875 212.61628906 -175.07296875 211.80289063 -176.06640625 210.96484375 C-182.5154939 205.32634584 -187.94521842 199.22435325 -193.14453125 192.4296875 C-193.81097656 191.59050781 -194.47742187 190.75132812 -195.1640625 189.88671875 C-204.80087104 177.32275338 -211.08650609 163.46203004 -215.56738281 148.35546875 C-216.04978823 146.7458182 -216.57278567 145.14840599 -217.10546875 143.5546875 C-226.9987096 112.20976601 -221.43069555 73.48451504 -207.14453125 44.4296875 C-202.41300018 35.39005288 -196.84062204 27.13797806 -190.14453125 19.4296875 C-189.11585938 18.21925781 -189.11585938 18.21925781 -188.06640625 16.984375 C-141.55330107 -36.38857663 -55.60299725 -45.24350347 0 0 Z " fill="#FEFDFD" transform="translate(2947.14453125,2891.5703125)"/>
<path d="M0 0 C11.76975581 9.91338782 23.10625968 21.68858291 28.875 36.25 C28.76098633 38.18920898 28.76098633 38.18920898 27.875 40.25 C25.62182617 41.97338867 25.62182617 41.97338867 22.66796875 43.66796875 C21.60642578 44.28220703 20.54488281 44.89644531 19.45117188 45.52929688 C18.33291016 46.15900391 17.21464844 46.78871094 16.0625 47.4375 C14.40250977 48.39946289 14.40250977 48.39946289 12.70898438 49.38085938 C3.73601695 54.52145233 3.73601695 54.52145233 -0.125 55.25 C-0.57488281 54.37859375 -1.02476562 53.5071875 -1.48828125 52.609375 C-10.80217472 35.13440764 -22.73596851 24.1615693 -41.83984375 18.1953125 C-57.088893 13.80735778 -74.85165437 15.1343571 -88.84765625 22.82421875 C-98.07672735 28.60228213 -102.68621632 35.93364896 -106.125 46.25 C-107.07204096 58.04919882 -105.34313575 67.70140157 -98.125 77.25 C-82.01411849 90.40081772 -60.53818707 95.98756622 -41.125 102.25 C-18.91602994 109.44836192 4.64477388 117.85306433 20.875 135.25 C21.64070313 136.02214844 22.40640625 136.79429687 23.1953125 137.58984375 C34.88253426 149.85927028 37.38729826 164.4998493 37.29663086 180.93994141 C36.85300025 198.04973443 31.23591513 213.31117999 19.875 226.25 C19.29234375 226.92675781 18.7096875 227.60351562 18.109375 228.30078125 C7.73622293 239.52383444 -7.4415297 246.59975528 -22.125 250.25 C-23.1459375 250.52972656 -24.166875 250.80945312 -25.21875 251.09765625 C-34.6839049 253.3096218 -44.06472271 253.54592031 -53.75 253.5625 C-55.04768311 253.56789795 -56.34536621 253.5732959 -57.68237305 253.57885742 C-86.70053112 253.3676092 -111.65539959 244.04746188 -132.8125 224.0625 C-140.84807759 215.76061364 -153.125 200.26726108 -153.125 188.25 C-149.19978195 185.93999797 -145.26711853 183.64346004 -141.3269043 181.35913086 C-139.98719837 180.57992243 -138.64961281 179.79705661 -137.31420898 179.01049805 C-135.39590477 177.88145528 -133.47039549 176.76572315 -131.54296875 175.65234375 C-130.94598679 175.297202 -130.34900482 174.94206024 -129.7339325 174.57615662 C-128.2400142 173.72194245 -126.68509904 172.97633648 -125.125 172.25 C-124.135 172.58 -123.145 172.91 -122.125 173.25 C-120.80078125 176.0234375 -120.80078125 176.0234375 -119.4375 179.625 C-113.39620574 194.6104735 -102.5588438 206.01687006 -87.84765625 212.75 C-70.6598155 219.93511828 -49.0919398 220.99956868 -31.125 216.25 C-29.62839844 215.86521484 -29.62839844 215.86521484 -28.1015625 215.47265625 C-18.42611752 212.63338839 -9.86733166 207.69460538 -4.125 199.25 C1.0435056 189.03604846 3.09900543 177.47901822 -0.25 166.25 C-5.34912195 154.03528515 -15.26901112 148.68229716 -26.93359375 143.72265625 C-40.28297807 138.25752541 -53.85995891 133.61056276 -67.5625 129.125 C-122.03148548 111.27963979 -122.03148548 111.27963979 -135.65625 86.34375 C-144.36463706 68.00055172 -144.20798612 47.67557553 -138.28125 28.5234375 C-135.9463306 22.02189469 -132.31039118 16.70397214 -128.125 11.25 C-127.68671875 10.64542969 -127.2484375 10.04085937 -126.796875 9.41796875 C-97.77593196 -27.9071598 -35.14706145 -26.99382462 0 0 Z " fill="#FEFDFD" transform="translate(3856.125,2881.75)"/>
<path d="M0 0 C22.01973632 -0.16043524 22.01973632 -0.16043524 31.45507812 -0.1953125 C37.87619359 -0.21916089 44.29707941 -0.24727757 50.71801758 -0.30175781 C55.89869378 -0.34543622 61.07912348 -0.36918343 66.25996971 -0.37950897 C68.22979801 -0.38686101 70.19961386 -0.40121725 72.16933632 -0.42292023 C87.77035415 -0.58787429 99.46907481 0.73579846 111.09375 12.03515625 C120.01731497 21.47482293 124.55748199 32.31093865 124.25390625 45.32421875 C122.88360475 59.76508841 116.87625076 70.59795173 105.765625 79.86328125 C94.29370074 88.06041862 82.06826397 87.40562048 68.5546875 87.29296875 C66.57358116 87.28736548 64.59247064 87.28309884 62.61135864 87.28010559 C57.4262318 87.26871437 52.24136167 87.23929703 47.05633545 87.20599365 C40.81955265 87.16973816 34.58268347 87.15610435 28.3458252 87.13863373 C18.89703888 87.10965585 9.44881458 87.05212873 0 87 C0 58.29 0 29.58 0 0 Z " fill="#EB5E28" transform="translate(3448,3014)"/>
<path d="M0 0 C12.7875 -0.0825 25.575 -0.165 38.75 -0.25 C42.76510742 -0.28641602 46.78021484 -0.32283203 50.91699219 -0.36035156 C55.87744141 -0.37841797 55.87744141 -0.37841797 58.21075439 -0.3817749 C59.8161057 -0.38785657 61.4214405 -0.40179681 63.02667236 -0.42230225 C76.4762682 -0.58529386 88.69670341 0.31863278 99 10 C107.95643017 18.74779453 112.9950834 26.93574377 113.24169922 39.62084961 C113.29600885 53.14234991 110.0497048 62.6926895 100.6875 72.75 C92.48247987 80.5393473 82.84161082 83.33782287 71.74804688 83.22705078 C70.95410774 83.22729185 70.16016861 83.22753292 69.34217072 83.2277813 C66.80091192 83.22630195 64.25995553 83.21113331 61.71875 83.1953125 C60.13834779 83.19236778 58.55794362 83.19032998 56.97753906 83.18920898 C51.15166274 83.17877138 45.32582832 83.15084885 39.5 83.125 C26.465 83.08375 13.43 83.0425 0 83 C0 55.61 0 28.22 0 0 Z " fill="#EB5F29" transform="translate(3447,2897)"/>
<path d="M0 0 C0.66 0 1.32 0 2 0 C2.39771606 1.13369019 2.39771606 1.13369019 2.8034668 2.2902832 C8.39052694 18.18953491 14.09032384 34.03954362 19.98648071 49.82681274 C25.53003098 64.67431712 30.95397713 79.56418237 36.35620117 94.46362305 C36.83451637 95.78223579 36.83451637 95.78223579 37.32249451 97.12748718 C37.95086918 98.86042034 38.57861713 100.5935809 39.20570374 102.32698059 C40.79155504 106.70342854 42.39639802 111.07165093 44.03222656 115.4296875 C44.35865143 116.30270508 44.68507629 117.17572266 45.02139282 118.07519531 C45.64315489 119.73497564 46.26890782 121.39326822 46.89926147 123.04980469 C49 128.66626634 49 128.66626634 49 132 C17.32 132 -14.36 132 -47 132 C-45.87736583 125.26419497 -45.87736583 125.26419497 -44.49609375 121.74609375 C-44.17576172 120.91464844 -43.85542969 120.08320313 -43.52539062 119.2265625 C-43.16638672 118.30617188 -42.80738281 117.38578125 -42.4375 116.4375 C-37.75090009 104.19720376 -33.36882591 91.85639908 -29 79.5 C-24.49975667 66.78209522 -19.98014912 54.08162092 -15.17773438 41.47412109 C-11.46915973 31.69876307 -8.00730415 21.83600093 -4.53979492 11.97314453 C-4.31144455 11.32482666 -4.08309418 10.67650879 -3.8478241 10.00854492 C-3.2240988 8.23677593 -2.6022259 6.46435515 -1.98046875 4.69189453 C-1 2 -1 2 0 0 Z " fill="#EB5F29" transform="translate(3193,2908)"/>
</svg>
